<?xml version="1.0" encoding="utf-8"?>
<!-- Generator: Adobe Illustrator 28.0.0, SVG Export Plug-In . SVG Version: 6.00 Build 0)  -->
<svg version="1.1" id="Glyph" xmlns="http://www.w3.org/2000/svg" xmlns:xlink="http://www.w3.org/1999/xlink" x="0px" y="0px"
	 viewBox="0 0 150 150" style="enable-background:new 0 0 150 150;" xml:space="preserve">
<g>
	<g>
		<path d="M71,79h9.2c0.1-0.2,0.1-0.3,0.2-0.5l1.8-3.5H69.1l1.8,3.5C70.9,78.7,71,78.9,71,79z"/>
	</g>
	<g>
		<rect x="30.9" y="68.6" width="4" height="4"/>
	</g>
	<g>
		<path d="M51.8,82.3c0.7-0.7,0.8-1.8,0.3-2.7l-1.5-3.1L49,79.6c-0.5,0.9-0.3,2,0.3,2.7c0.2,0.3,0.7,0.6,1.2,0.6
			C51.1,82.9,51.5,82.6,51.8,82.3z"/>
	</g>
	<g>
		<path d="M68.3,82.3c0.7-0.7,0.8-1.8,0.3-2.7l-1.5-3.1l-1.5,3.1c-0.5,0.9-0.3,2,0.3,2.7c0.2,0.3,0.7,0.6,1.2,0.6
			S68.1,82.6,68.3,82.3z"/>
	</g>
	<g>
		<path d="M54.4,79h8.8c0.1-0.2,0.1-0.3,0.2-0.5l1.8-3.5H52.5l1.8,3.5C54.3,78.7,54.4,78.9,54.4,79z"/>
	</g>
	<g>
		<path d="M35.8,26.2l-1.7-2.5h-2v6C33.4,28.6,34.6,27.4,35.8,26.2z"/>
	</g>
	<g>
		<path d="M116.1,30.3c-1-0.9-1.9-1.8-2.8-2.7H37.9c-0.9,0.9-1.8,1.9-2.8,2.7H116.1z"/>
	</g>
	<g>
		<path d="M126,37.6c-2.5-1.5-4.9-3.1-7.1-5H32.3c-2.2,1.8-4.6,3.5-7.1,5c-3.9,2.3-8,4.1-12.2,5.5h125.3
			C134,41.8,129.9,39.9,126,37.6z"/>
	</g>
	<g>
		<rect x="24.5" y="68.6" width="4" height="4"/>
	</g>
	<g>
		<path d="M119,29.7v-6h-2l-1.7,2.5C116.6,27.4,117.8,28.6,119,29.7z"/>
	</g>
	<g>
		<path d="M21.5,63.9c0.8,0.7,1.6,1.5,2.3,2.3h103.5c0.7-0.8,1.5-1.6,2.3-2.3c0.7-0.6,1.5-1.2,2.3-1.7H19.2
			C20,62.7,20.8,63.3,21.5,63.9z"/>
	</g>
	<g>
		<rect x="122.7" y="68.6" width="4" height="4"/>
	</g>
	<g>
		<rect x="2.8" y="45.5" width="145.6" height="2.7"/>
	</g>
	<g>
		<rect x="116.3" y="68.6" width="4" height="4"/>
	</g>
	<g>
		<rect x="10.5" y="55.8" width="130.3" height="4"/>
	</g>
	<g>
		<polygon points="9.6,53.4 141.6,53.4 145.6,50.6 5.5,50.6 		"/>
	</g>
	<g>
		<rect x="37.3" y="68.6" width="76.7" height="4"/>
	</g>
	<g>
		<path d="M101.9,82.3c0.7-0.7,0.8-1.8,0.3-2.7l-1.5-3.1l-1.5,3.1c-0.5,0.9-0.3,2,0.3,2.7c0.2,0.3,0.7,0.6,1.2,0.6
			S101.6,82.6,101.9,82.3z"/>
	</g>
	<g>
		<path d="M88,79h8.8c0.1-0.2,0.1-0.3,0.2-0.5l1.8-3.5H86l1.8,3.5C87.8,78.7,87.9,78.9,88,79z"/>
	</g>
	<g>
		<path d="M148.4,123.9h-21.7V75h-4v48.9h-2.4V116h-4v7.9h-2.4V75h-11.4l1.8,3.5c0.1,0.2,0.1,0.3,0.2,0.5h4.2c0.7,0,1.2,0.5,1.2,1.2
			v43.7H94.6v-11.6c0-0.7-0.5-1.2-1.2-1.2H57.7c-0.7,0-1.2,0.5-1.2,1.2v11.6H41.2V80.2c0-0.7,0.5-1.2,1.2-1.2h4.2
			c0.1-0.2,0.1-0.3,0.2-0.5l1.8-3.5H37.3v48.9h-2.4V116h-4v7.9h-2.4V75h-4v48.9H1.6c-0.7,0-1.2,0.5-1.2,1.2s0.5,1.2,1.2,1.2h146.7
			c0.7,0,1.2-0.5,1.2-1.2S149,123.9,148.4,123.9z M58.9,113.5h33.3v10.4H58.9V113.5z"/>
		<rect x="30.9" y="75" width="4" height="32.2"/>
		<rect x="30.9" y="109.6" width="4" height="4"/>
		<rect x="116.3" y="75" width="4" height="32.2"/>
		<rect x="116.3" y="109.6" width="4" height="4"/>
	</g>
	<g>
		<path d="M85.3,82.3c0.7-0.7,0.8-1.8,0.3-2.7l-1.5-3.1l-1.5,3.1c-0.5,0.9-0.3,2,0.3,2.7c0.2,0.3,0.7,0.6,1.2,0.6S85,82.6,85.3,82.3
			z"/>
	</g>
</g>
</svg>
