<?xml version="1.0" encoding="utf-8"?>
<!-- Generator: Adobe Illustrator 28.0.0, SVG Export Plug-In . SVG Version: 6.00 Build 0)  -->
<svg version="1.1" id="_レイヤー_2" xmlns="http://www.w3.org/2000/svg" xmlns:xlink="http://www.w3.org/1999/xlink" x="0px"
	 y="0px" viewBox="0 0 150 150" style="enable-background:new 0 0 150 150;" xml:space="preserve">
<style type="text/css">
	.st0{fill:#4A4949;}
</style>
<g>
	<path class="st0" d="M56.3,109.9h37.5c1.7,0,3.1-1.4,3.1-3.1v-6.2c0-6.9-5.6-12.5-12.5-12.5c-3.8,0-7.1,1.7-9.4,4.3
		c-2.3-2.6-5.6-4.3-9.4-4.3c-6.9,0-12.5,5.6-12.5,12.5v6.2C53.1,108.5,54.5,109.9,56.3,109.9z M78.1,100.5c0-3.4,2.8-6.3,6.3-6.3
		c3.4,0,6.3,2.8,6.3,6.3v3.1H78.1V100.5z M59.4,100.5c0-3.4,2.8-6.3,6.2-6.3c3.4,0,6.3,2.8,6.3,6.3v3.1H59.4V100.5z"/>
	<path class="st0" d="M146.9,144.2h-3.1V25.5c1.7,0,3.1-1.4,3.1-3.1c0-1.7-1.4-3.1-3.1-3.1h-0.3C142,8.7,132.9,0.5,121.9,0.5
		c-11,0-20.1,8.2-21.6,18.8H100c-1.7,0-3.1,1.4-3.1,3.1c0,1.7,1.4,3.1,3.1,3.1v11.7L76.9,19.9c-1.1-0.8-2.6-0.8-3.7,0L50,37.2V25.5
		c1.7,0,3.1-1.4,3.1-3.1c0-1.7-1.4-3.1-3.1-3.1h-0.3C48.2,8.7,39.1,0.5,28.1,0.5C17.1,0.5,8,8.7,6.5,19.3H6.3
		c-1.7,0-3.1,1.4-3.1,3.1c0,1.7,1.4,3.1,3.1,3.1v118.7H3.1c-1.7,0-3.1,1.4-3.1,3.1c0,1.7,1.4,3.1,3.1,3.1h143.7
		c1.7,0,3.1-1.4,3.1-3.1C150,145.6,148.6,144.2,146.9,144.2z M121.9,6.8c7.5,0,13.9,5.4,15.3,12.5h-30.6
		C108,12.1,114.3,6.8,121.9,6.8z M75,26.3l40.6,30.5H34.4L75,26.3z M28.1,6.8c7.5,0,13.9,5.4,15.3,12.5H12.8
		C14.3,12.1,20.6,6.8,28.1,6.8z M34.4,144.2H12.5V25.5h31.2v16.4L23.1,57.4c-1.1,0.8-1.5,2.2-1.1,3.5c0.4,1.3,1.6,2.1,3,2.1h3.1
		v12.5c0,1.7,1.4,3.1,3.1,3.1h3.1V144.2z M34.4,63h81.2v9.4H34.4V63z M71.9,144.2H59.4v-12.5c0-3.4,2.8-6.3,6.2-6.3
		c3.4,0,6.3,2.8,6.3,6.3V144.2z M90.6,144.2H78.1v-12.5c0-3.4,2.8-6.3,6.3-6.3c3.4,0,6.3,2.8,6.3,6.3V144.2z M109.4,144.2H96.9
		v-12.5c0-6.9-5.6-12.5-12.5-12.5c-3.8,0-7.1,1.7-9.4,4.3c-2.3-2.6-5.6-4.3-9.4-4.3c-6.9,0-12.5,5.6-12.5,12.5v12.5H40.6V78.6h68.7
		V144.2z M137.5,144.2h-21.9V78.6h3.1c1.7,0,3.1-1.4,3.1-3.1V63h3.1c1.3,0,2.5-0.9,3-2.1c0.4-1.3,0-2.7-1.1-3.5l-20.6-15.5V25.5
		h31.2V144.2z"/>
</g>
</svg>
