<?xml version="1.0" encoding="utf-8"?>
<!-- Generator: Adobe Illustrator 28.0.0, SVG Export Plug-In . SVG Version: 6.00 Build 0)  -->
<svg version="1.1" id="_レイヤー_2" xmlns="http://www.w3.org/2000/svg" xmlns:xlink="http://www.w3.org/1999/xlink" x="0px"
	 y="0px" viewBox="0 0 150 150" style="enable-background:new 0 0 150 150;" xml:space="preserve">
<style type="text/css">
	.st0{fill:#4A4949;}
</style>
<g>
	<path class="st0" d="M96.1,136.9H10.1c-1.5,0-2.7-1.2-2.7-2.7V2.9c0-1.5,1.2-2.7,2.7-2.7h85.9c1.5,0,2.7,1.2,2.7,2.7v131.3
		C98.7,135.7,97.6,136.9,96.1,136.9z M12.8,131.6h80.6V5.6H12.8V131.6z"/>
	<path class="st0" d="M100.9,5.6H5.3c-1.5,0-2.7-1.2-2.7-2.7s1.2-2.7,2.7-2.7h95.7c1.5,0,2.7,1.2,2.7,2.7S102.4,5.6,100.9,5.6z"/>
	<path class="st0" d="M140.7,136.9H96.1c-1.5,0-2.7-1.2-2.7-2.7V37.9c0-1.5,1.2-2.7,2.7-2.7h44.6c1.5,0,2.7,1.2,2.7,2.7v96.3
		C143.3,135.7,142.1,136.9,140.7,136.9z M98.7,131.6H138v-91H98.7V131.6z"/>
	<path class="st0" d="M146,40.6H96.1c-1.5,0-2.7-1.2-2.7-2.7c0-1.5,1.2-2.7,2.7-2.7H146c1.5,0,2.7,1.2,2.7,2.7
		C148.6,39.4,147.4,40.6,146,40.6z"/>
	<path class="st0" d="M44.6,18.8H10.1c-1.5,0-2.7-1.2-2.7-2.7c0-1.5,1.2-2.7,2.7-2.7h34.4c1.5,0,2.7,1.2,2.7,2.7
		C47.2,17.6,46,18.8,44.6,18.8z"/>
	<path class="st0" d="M96.1,18.8H58.8c-1.5,0-2.7-1.2-2.7-2.7c0-1.5,1.2-2.7,2.7-2.7h37.3c1.5,0,2.7,1.2,2.7,2.7
		C98.7,17.6,97.6,18.8,96.1,18.8z"/>
	<path class="st0" d="M43.9,53.7h-22c-1.5,0-2.7-1.2-2.7-2.7v-24c0-1.5,1.2-2.7,2.7-2.7h22c1.5,0,2.7,1.2,2.7,2.7v24
		C46.5,52.6,45.3,53.7,43.9,53.7z M24.5,48.4h16.7V29.8H24.5V48.4z"/>
	<path class="st0" d="M84.4,53.7h-22c-1.5,0-2.7-1.2-2.7-2.7v-24c0-1.5,1.2-2.7,2.7-2.7h22c1.5,0,2.7,1.2,2.7,2.7v24
		C87,52.6,85.8,53.7,84.4,53.7z M65,48.4h16.7V29.8H65V48.4z"/>
	<path class="st0" d="M43.9,89.7h-22c-1.5,0-2.7-1.2-2.7-2.7v-24c0-1.5,1.2-2.7,2.7-2.7h22c1.5,0,2.7,1.2,2.7,2.7v24
		C46.5,88.5,45.3,89.7,43.9,89.7z M24.5,84.4h16.7V65.7H24.5V84.4z"/>
	<path class="st0" d="M84.4,89.7h-22c-1.5,0-2.7-1.2-2.7-2.7v-24c0-1.5,1.2-2.7,2.7-2.7h22c1.5,0,2.7,1.2,2.7,2.7v24
		C87,88.5,85.8,89.7,84.4,89.7z M65,84.4h16.7V65.7H65V84.4z"/>
	<path class="st0" d="M43.9,125.6h-22c-1.5,0-2.7-1.2-2.7-2.7V99c0-1.5,1.2-2.7,2.7-2.7h22c1.5,0,2.7,1.2,2.7,2.7v24
		C46.5,124.4,45.3,125.6,43.9,125.6z M24.5,120.3h16.7v-18.7H24.5V120.3z"/>
	<path class="st0" d="M84.4,125.6h-22c-1.5,0-2.7-1.2-2.7-2.7V99c0-1.5,1.2-2.7,2.7-2.7h22c1.5,0,2.7,1.2,2.7,2.7v24
		C87,124.4,85.8,125.6,84.4,125.6z M65,120.3h16.7v-18.7H65V120.3z"/>
	<path class="st0" d="M128.4,87.8H96.1c-1.5,0-2.7-1.2-2.7-2.7V66.6c0-1.5,1.2-2.7,2.7-2.7h32.3c1.5,0,2.7,1.2,2.7,2.7v18.5
		C131.1,86.6,129.9,87.8,128.4,87.8z M98.7,82.4h27V69.2h-27V82.4z"/>
	<path class="st0" d="M128.4,120H96.1c-1.5,0-2.7-1.2-2.7-2.7V98.8c0-1.5,1.2-2.7,2.7-2.7h32.3c1.5,0,2.7,1.2,2.7,2.7v18.5
		C131.1,118.8,129.9,120,128.4,120z M98.7,114.7h27v-13.2h-27V114.7z"/>
	<path class="st0" d="M140.7,55.1H96.1c-1.5,0-2.7-1.2-2.7-2.7c0-1.5,1.2-2.7,2.7-2.7h44.6c1.5,0,2.7,1.2,2.7,2.7
		C143.3,53.9,142.1,55.1,140.7,55.1z"/>
	<path class="st0" d="M147.3,149.7H2.7c-1.5,0-2.7-1.2-2.7-2.7v-12.9c0-1.5,1.2-2.7,2.7-2.7h144.7c1.5,0,2.7,1.2,2.7,2.7v12.9
		C150,148.6,148.8,149.7,147.3,149.7z M5.3,144.4h139.4v-7.5H5.3V144.4z"/>
</g>
</svg>
