<?xml version="1.0" encoding="utf-8"?>
<!-- Generator: Adobe Illustrator 28.0.0, SVG Export Plug-In . SVG Version: 6.00 Build 0)  -->
<svg version="1.1" id="_レイヤー_2" xmlns="http://www.w3.org/2000/svg" xmlns:xlink="http://www.w3.org/1999/xlink" x="0px"
	 y="0px" viewBox="0 0 150 150" style="enable-background:new 0 0 150 150;" xml:space="preserve">
<style type="text/css">
	.st0{fill:#4A4949;}
</style>
<g>
	<path class="st0" d="M41.2,133.6H6.3c-1.4,0-2.6-1.2-2.6-2.6V73.2c0-1.4,1.2-2.6,2.6-2.6h34.9c1.4,0,2.6,1.2,2.6,2.6V131
		C43.8,132.5,42.7,133.6,41.2,133.6z M8.9,128.5h29.7V75.8H8.9V128.5z"/>
	<path class="st0" d="M41.2,75.8H2.6c-0.9,0-1.7-0.5-2.2-1.2c-0.5-0.7-0.5-1.7-0.2-2.5l7.3-15.5c0.4-0.9,1.3-1.5,2.3-1.5h31.3
		c1.4,0,2.6,1.2,2.6,2.6s-1.2,2.6-2.6,2.6H11.5L6.7,70.6h34.6c1.4,0,2.6,1.2,2.6,2.6S42.7,75.8,41.2,75.8z"/>
	<path class="st0" d="M143.6,133.6h-34.9c-1.4,0-2.6-1.2-2.6-2.6V73.2c0-1.4,1.2-2.6,2.6-2.6h34.9c1.4,0,2.6,1.2,2.6,2.6V131
		C146.2,132.5,145.1,133.6,143.6,133.6z M111.3,128.5h29.7V75.8h-29.7V128.5z"/>
	<path class="st0" d="M147.4,75.8h-38.7c-1.4,0-2.6-1.2-2.6-2.6s1.2-2.6,2.6-2.6h34.6l-4.9-10.3h-29.7c-1.4,0-2.6-1.2-2.6-2.6
		s1.2-2.6,2.6-2.6h31.3c1,0,1.9,0.6,2.3,1.5l7.3,15.5c0.4,0.8,0.3,1.7-0.2,2.5S148.3,75.8,147.4,75.8z"/>
	<path class="st0" d="M108.8,133.6H41.2c-1.4,0-2.6-1.2-2.6-2.6V43.6h-1.9c-1.4,0-2.6-1.2-2.6-2.6v-8.3c0-1.1,0.7-2.1,1.7-2.4
		l38.2-13.8c0.6-0.2,1.2-0.2,1.8,0l38.2,13.8c1,0.4,1.7,1.3,1.7,2.4v8.3c0,1.4-1.2,2.6-2.6,2.6h-1.8V131
		C111.3,132.5,110.2,133.6,108.8,133.6z M43.8,128.5h62.4V41.1c0-1.4,1.2-2.6,2.6-2.6h1.8v-3.9L75,21.7L39.4,34.6v3.9h1.9
		c1.4,0,2.6,1.2,2.6,2.6V128.5z"/>
	<path class="st0" d="M75,71.2c-11,0-20-9-20-20s9-20,20-20c11,0,20,9,20,20S86,71.2,75,71.2z M75,36.4c-8.2,0-14.8,6.6-14.8,14.8
		C60.2,59.4,66.8,66,75,66c8.2,0,14.8-6.6,14.8-14.8C89.8,43,83.2,36.4,75,36.4z"/>
	<path class="st0" d="M81.2,60c-0.7,0-1.3-0.3-1.8-0.8L73.2,53c-0.5-0.5-0.8-1.1-0.8-1.8v-5.7c0-1.4,1.2-2.6,2.6-2.6
		c1.4,0,2.6,1.2,2.6,2.6v4.7l5.5,5.5c1,1,1,2.6,0,3.6C82.5,59.8,81.9,60,81.2,60z"/>
	<path class="st0" d="M51.5,43.6H41.2c-1.4,0-2.6-1.2-2.6-2.6c0-1.4,1.2-2.6,2.6-2.6h10.2c1.4,0,2.6,1.2,2.6,2.6
		C54,42.5,52.9,43.6,51.5,43.6z"/>
	<path class="st0" d="M108.7,43.6H98.5c-1.4,0-2.6-1.2-2.6-2.6c0-1.4,1.2-2.6,2.6-2.6h10.2c1.4,0,2.6,1.2,2.6,2.6
		C111.3,42.5,110.2,43.6,108.7,43.6z"/>
	<path class="st0" d="M30.9,99.5H16.7c-1.4,0-2.6-1.2-2.6-2.6V82.5c0-1.4,1.2-2.6,2.6-2.6h14.2c1.4,0,2.6,1.2,2.6,2.6v14.4
		C33.5,98.3,32.3,99.5,30.9,99.5z M19.3,94.3h9v-9.2h-9V94.3z"/>
	<path class="st0" d="M30.9,123.7H16.7c-1.4,0-2.6-1.2-2.6-2.6v-14.4c0-1.4,1.2-2.6,2.6-2.6h14.2c1.4,0,2.6,1.2,2.6,2.6v14.4
		C33.5,122.5,32.3,123.7,30.9,123.7z M19.3,118.5h9v-9.2h-9V118.5z"/>
	<path class="st0" d="M133.3,99.5h-14.2c-1.4,0-2.6-1.2-2.6-2.6V82.5c0-1.4,1.2-2.6,2.6-2.6h14.2c1.4,0,2.6,1.2,2.6,2.6v14.4
		C135.9,98.3,134.7,99.5,133.3,99.5z M121.7,94.3h9v-9.2h-9V94.3z"/>
	<path class="st0" d="M133.3,123.7h-14.2c-1.4,0-2.6-1.2-2.6-2.6v-14.4c0-1.4,1.2-2.6,2.6-2.6h14.2c1.4,0,2.6,1.2,2.6,2.6v14.4
		C135.9,122.5,134.7,123.7,133.3,123.7z M121.7,118.5h9v-9.2h-9V118.5z"/>
	<path class="st0" d="M90.6,133.6H59.4c-1.4,0-2.6-1.2-2.6-2.6V90.4c0-1.4,1.2-2.6,2.6-2.6h31.1c1.4,0,2.6,1.2,2.6,2.6V131
		C93.1,132.5,92,133.6,90.6,133.6z M62,128.5h26V93H62V128.5z"/>
	<path class="st0" d="M57.6,84h-7.3c-1.4,0-2.6-1.2-2.6-2.6s1.2-2.6,2.6-2.6h7.3c1.4,0,2.6,1.2,2.6,2.6S59,84,57.6,84z"/>
	<path class="st0" d="M57.6,74h-7.3c-1.4,0-2.6-1.2-2.6-2.6s1.2-2.6,2.6-2.6h7.3c1.4,0,2.6,1.2,2.6,2.6S59,74,57.6,74z"/>
	<path class="st0" d="M99.7,84h-7.3c-1.4,0-2.6-1.2-2.6-2.6s1.2-2.6,2.6-2.6h7.3c1.4,0,2.6,1.2,2.6,2.6S101.1,84,99.7,84z"/>
	<path class="st0" d="M99.7,74h-7.3c-1.4,0-2.6-1.2-2.6-2.6s1.2-2.6,2.6-2.6h7.3c1.4,0,2.6,1.2,2.6,2.6S101.1,74,99.7,74z"/>
</g>
</svg>
