<?xml version="1.0" encoding="utf-8"?>
<!-- Generator: Adobe Illustrator 28.0.0, SVG Export Plug-In . SVG Version: 6.00 Build 0)  -->
<svg version="1.1" id="_レイヤー_2" xmlns="http://www.w3.org/2000/svg" xmlns:xlink="http://www.w3.org/1999/xlink" x="0px"
	 y="0px" viewBox="0 0 150 150" style="enable-background:new 0 0 150 150;" xml:space="preserve">
<style type="text/css">
	.st0{fill:#4A4949;}
</style>
<g id="layer_1">
	<g>
		<path class="st0" d="M147,143.9h-6.3V65.7c0-1.8-1.5-3-3-3h-22V34.4c0-1.8-1.5-3-3-3h-22V3.1c-0.3-1.8-1.5-3.3-3.3-3.3H37.3
			c-1.8,0-3,1.5-3,3v43.8h-22c-1.8,0-3,1.5-3,3v93.9H3c-1.8,0-3,1.5-3,3c0,1.5,1.3,3.5,3,3.5h144c1.8,0,3-1.5,3-3
			C150,145.6,148.5,143.9,147,143.9z M34.3,143.9H15.5V53.2h18.8V143.9z M59.3,34.4v109.4H40.6V6.1h43.8v25h-22
			C60.6,31.2,59.3,32.7,59.3,34.4z M96.9,65.7v78.1H65.6V37.4h43.8v25h-9.5C98.2,62.5,96.7,64,96.9,65.7z M134.2,143.9h-31.3V68.7
			h31.3V143.9z"/>
		<rect x="46.8" y="125.1" class="st0" width="6.3" height="6.3"/>
		<rect x="46.8" y="109.6" class="st0" width="6.3" height="6.3"/>
		<rect x="46.8" y="93.8" class="st0" width="6.3" height="6.3"/>
		<rect x="46.8" y="78" class="st0" width="6.3" height="6.3"/>
		<rect x="46.8" y="62.5" class="st0" width="6.3" height="6.3"/>
		<rect x="21.8" y="125.1" class="st0" width="6.3" height="6.3"/>
		<rect x="21.8" y="109.6" class="st0" width="6.3" height="6.3"/>
		<rect x="21.8" y="93.8" class="st0" width="6.3" height="6.3"/>
		<rect x="21.8" y="78" class="st0" width="6.3" height="6.3"/>
		<rect x="21.8" y="62.5" class="st0" width="6.3" height="6.3"/>
		<rect x="46.8" y="47" class="st0" width="6.3" height="6.3"/>
		<rect x="71.9" y="125.1" class="st0" width="6.3" height="6.3"/>
		<rect x="71.9" y="109.6" class="st0" width="6.3" height="6.3"/>
		<rect x="71.9" y="93.8" class="st0" width="6.3" height="6.3"/>
		<rect x="71.9" y="78" class="st0" width="6.3" height="6.3"/>
		<rect x="71.9" y="62.5" class="st0" width="6.3" height="6.3"/>
		<rect x="84.4" y="125.1" class="st0" width="6.3" height="6.3"/>
		<rect x="84.4" y="109.6" class="st0" width="6.3" height="6.3"/>
		<rect x="84.4" y="93.8" class="st0" width="6.3" height="6.3"/>
		<rect x="84.4" y="78" class="st0" width="6.3" height="6.3"/>
		<rect x="84.4" y="62.5" class="st0" width="6.3" height="6.3"/>
		<rect x="71.9" y="47" class="st0" width="6.3" height="6.3"/>
		<rect x="109.4" y="125.1" class="st0" width="6.3" height="6.3"/>
		<rect x="109.4" y="109.6" class="st0" width="6.3" height="6.3"/>
		<rect x="109.4" y="93.8" class="st0" width="6.3" height="6.3"/>
		<rect x="109.4" y="78" class="st0" width="6.3" height="6.3"/>
		<rect x="121.7" y="125.1" class="st0" width="6.3" height="6.3"/>
		<rect x="121.7" y="109.6" class="st0" width="6.3" height="6.3"/>
		<rect x="121.7" y="93.8" class="st0" width="6.3" height="6.3"/>
		<rect x="121.7" y="78" class="st0" width="6.3" height="6.3"/>
		<rect x="84.4" y="47" class="st0" width="6.3" height="6.3"/>
		<rect x="96.9" y="47" class="st0" width="6.3" height="6.3"/>
		<rect x="46.8" y="31.2" class="st0" width="6.3" height="6.3"/>
		<rect x="46.8" y="15.7" class="st0" width="6.3" height="6.3"/>
		<rect x="59.3" y="15.7" class="st0" width="6.3" height="6.3"/>
		<rect x="71.9" y="15.7" class="st0" width="6.3" height="6.3"/>
	</g>
</g>
</svg>
