<?xml version="1.0" encoding="utf-8"?>
<!-- Generator: Adobe Illustrator 28.0.0, SVG Export Plug-In . SVG Version: 6.00 Build 0)  -->
<svg version="1.1" id="_レイヤー_2" xmlns="http://www.w3.org/2000/svg" xmlns:xlink="http://www.w3.org/1999/xlink" x="0px"
	 y="0px" viewBox="0 0 150 150" style="enable-background:new 0 0 150 150;" xml:space="preserve">
<style type="text/css">
	.st0{fill:#4A4949;}
</style>
<g>
	<path class="st0" d="M37.6,17.6l1.5-0.6l0-1.6C39.1,9.2,44.2,4,50.5,4c3.4,0,6.6,1.5,8.8,4.1l0.3,0.4c0,0,0,0,0,0
		c1.5,1.9,2.4,4.3,2.4,6.9h4c0-2.4-0.6-4.8-1.6-6.8c6.7,0.4,12.2,6,12.2,12.9c0,7.1-5.8,12.9-12.9,12.9H47.5v4h16.2
		c9.3,0,16.9-7.6,16.9-16.9c0-9.3-7.6-16.9-16.9-16.9c-0.7,0-1.4,0-2.1,0.1C58.7,1.7,54.7,0,50.5,0c-8.1,0-14.8,6.3-15.4,14.2
		c-4.1,1.7-7,5.6-7.6,10h4.1C32.2,21.1,34.5,18.5,37.6,17.6z"/>
	<path class="st0" d="M51.2,113.9v17.2h17.2v-17.2H51.2z M64.3,127.1h-9.1V118h9.1V127.1z"/>
	<path class="st0" d="M76.3,113.9v17.2h17.2v-17.2H76.3z M89.4,127.1h-9.1V118h9.1V127.1z"/>
	<path class="st0" d="M101.4,113.9v17.2h17.2v-17.2H101.4z M114.5,127.1h-9.1V118h9.1V127.1z"/>
	<path class="st0" d="M126.1,82l-21.8,14.1h-1.8V82H95L73.2,96.1h-1.8V82h-7.4L45.4,93.7v4.8l19.7-12.4h2.2v14.1h7l21.8-14.1h2.2
		v14.1h7l21.8-14.1h2.2V146H40.3V31.2H16.5V150h117V82H126.1z M36.3,146H20.5V52.8h15.7V146z M36.3,48.8H20.5V35.3h15.7V48.8z"/>
</g>
</svg>
