<?xml version="1.0" encoding="utf-8"?>
<!-- Generator: Adobe Illustrator 28.0.0, SVG Export Plug-In . SVG Version: 6.00 Build 0)  -->
<svg version="1.1" id="_レイヤー_2" xmlns="http://www.w3.org/2000/svg" xmlns:xlink="http://www.w3.org/1999/xlink" x="0px"
	 y="0px" viewBox="0 0 150 150" style="enable-background:new 0 0 150 150;" xml:space="preserve">
<style type="text/css">
	.st0{fill:#4A4949;}
</style>
<g>
	<path class="st0" d="M75,82.8c-11,0-19.9-8.9-19.9-19.9c0-11,8.9-19.9,19.9-19.9c11,0,19.9,8.9,19.9,19.9
		C94.9,73.9,86,82.8,75,82.8z M75,48.3c-8.1,0-14.6,6.6-14.6,14.6c0,8.1,6.6,14.6,14.6,14.6c8.1,0,14.6-6.6,14.6-14.6
		C89.6,54.9,83.1,48.3,75,48.3z"/>
	<path class="st0" d="M75,28.3c-9.8,0-17.7-6.4-17.7-14.2S65.2,0,75,0c9.8,0,17.7,6.4,17.7,14.2S84.8,28.3,75,28.3z M75,5.3
		c-6.9,0-12.5,4-12.5,8.9s5.6,8.9,12.5,8.9c6.9,0,12.5-4,12.5-8.9S81.9,5.3,75,5.3z"/>
	<path class="st0" d="M125.6,77.1c-9.8,0-17.7-6.4-17.7-14.2s8-14.2,17.7-14.2s17.7,6.4,17.7,14.2S135.4,77.1,125.6,77.1z M125.6,54
		c-6.9,0-12.5,4-12.5,8.9s5.6,8.9,12.5,8.9c6.9,0,12.5-4,12.5-8.9S132.5,54,125.6,54z"/>
	<path class="st0" d="M24.4,77.1c-9.8,0-17.7-6.4-17.7-14.2s8-14.2,17.7-14.2c9.8,0,17.7,6.4,17.7,14.2S34.2,77.1,24.4,77.1z
		 M24.4,54c-6.9,0-12.5,4-12.5,8.9s5.6,8.9,12.5,8.9c6.9,0,12.5-4,12.5-8.9S31.3,54,24.4,54z"/>
	<path class="st0" d="M113.1,44.1c-9.8,0-17.7-6.4-17.7-14.2c0-7.8,8-14.2,17.7-14.2c9.8,0,17.7,6.4,17.7,14.2
		C130.8,37.7,122.8,44.1,113.1,44.1z M113.1,21c-6.9,0-12.5,4-12.5,8.9s5.6,8.9,12.5,8.9c6.9,0,12.5-4,12.5-8.9S119.9,21,113.1,21z"
		/>
	<path class="st0" d="M36.9,43.9c-9.8,0-17.7-6.4-17.7-14.2s8-14.2,17.7-14.2c9.8,0,17.7,6.4,17.7,14.2S46.7,43.9,36.9,43.9z
		 M36.9,20.9c-6.9,0-12.5,4-12.5,8.9s5.6,8.9,12.5,8.9c6.9,0,12.5-4,12.5-8.9S43.8,20.9,36.9,20.9z"/>
	<path class="st0" d="M75,125.9c-9.8,0-17.7-6.4-17.7-14.2s8-14.2,17.7-14.2c9.8,0,17.7,6.4,17.7,14.2S84.8,125.9,75,125.9z
		 M75,102.8c-6.9,0-12.5,4-12.5,8.9s5.6,8.9,12.5,8.9c6.9,0,12.5-4,12.5-8.9S81.9,102.8,75,102.8z"/>
	<path class="st0" d="M75,125.9c-9.8,0-17.7-6.4-17.7-14.2s8-14.2,17.7-14.2c9.8,0,17.7,6.4,17.7,14.2S84.8,125.9,75,125.9z
		 M75,102.8c-6.9,0-12.5,4-12.5,8.9s5.6,8.9,12.5,8.9c6.9,0,12.5-4,12.5-8.9S81.9,102.8,75,102.8z"/>
	<path class="st0" d="M24.4,77.1c-9.8,0-17.7-6.4-17.7-14.2s8-14.2,17.7-14.2c9.8,0,17.7,6.4,17.7,14.2S34.2,77.1,24.4,77.1z
		 M24.4,54c-6.9,0-12.5,4-12.5,8.9s5.6,8.9,12.5,8.9c6.9,0,12.5-4,12.5-8.9S31.3,54,24.4,54z"/>
	<path class="st0" d="M113.1,110.3c-9.8,0-17.7-6.4-17.7-14.2s8-14.2,17.7-14.2c9.8,0,17.7,6.4,17.7,14.2S122.8,110.3,113.1,110.3z
		 M113.1,87.2c-6.9,0-12.5,4-12.5,8.9s5.6,8.9,12.5,8.9c6.9,0,12.5-4,12.5-8.9S119.9,87.2,113.1,87.2z"/>
	<path class="st0" d="M36.9,110.3c-9.8,0-17.7-6.4-17.7-14.2s8-14.2,17.7-14.2c9.8,0,17.7,6.4,17.7,14.2S46.7,110.3,36.9,110.3z
		 M36.9,87.2c-6.9,0-12.5,4-12.5,8.9s5.6,8.9,12.5,8.9c6.9,0,12.5-4,12.5-8.9S43.8,87.2,36.9,87.2z"/>
	<path class="st0" d="M90.1,113.9c-0.5,0-1.1-0.2-1.5-0.5c-0.7-0.5-1.1-1.2-1.1-2c-0.2-4.7-5.8-8.6-12.5-8.6
		c-6.6,0-12.2,3.8-12.4,8.6c0,0.8-0.5,1.6-1.1,2c-0.7,0.5-1.5,0.6-2.3,0.4c-4.9-1.5-9.6-3.8-13.9-6.7c-0.7-0.5-1.2-1.3-1.2-2.2
		c0-0.9,0.5-1.7,1.2-2.2c2.6-1.7,4.1-4.1,4.1-6.6c0-4.9-5.6-8.9-12.5-8.9c-2.1,0-4.2,0.4-6,1.1c-1.3,0.5-2.7,0-3.3-1.2
		c-1.9-3.8-3.4-7.9-4.4-12.1c-0.2-0.8,0-1.5,0.5-2.2s1.2-1,1.9-1.1c6.4-0.4,11.3-4.3,11.3-8.9s-5-8.4-11.3-8.9
		c-0.8-0.1-1.5-0.4-1.9-1.1c-0.5-0.6-0.6-1.4-0.5-2.2c1-4.2,2.5-8.2,4.4-12.1c0.6-1.2,2.1-1.8,3.3-1.2c1.8,0.7,3.9,1.1,6,1.1
		c6.9,0,12.5-4,12.5-8.9c0-2.5-1.5-4.9-4.1-6.6c-0.7-0.5-1.2-1.3-1.2-2.2c0-0.9,0.4-1.7,1.2-2.2c4.3-2.9,9-5.2,13.9-6.7
		c0.8-0.2,1.6-0.1,2.3,0.4c0.7,0.5,1.1,1.2,1.1,2c0.2,4.7,5.8,8.6,12.4,8.6c6.6,0,12.2-3.9,12.5-8.6c0-0.8,0.5-1.6,1.1-2
		c0.7-0.5,1.5-0.6,2.3-0.4c5,1.5,9.7,3.8,14,6.8c0.7,0.5,1.2,1.3,1.2,2.2c0,0.9-0.5,1.7-1.2,2.2c-2.7,1.7-4.2,4.1-4.2,6.6
		c0,4.9,5.6,8.9,12.5,8.9c2.1,0,4.2-0.4,6.1-1.2c1.3-0.5,2.7,0,3.3,1.2c1.9,3.8,3.4,7.8,4.3,11.9c0.2,0.8,0,1.5-0.5,2.2
		c-0.5,0.6-1.2,1-1.9,1.1c-6.3,0.4-11.3,4.3-11.3,8.9s5,8.4,11.3,8.9c0.8,0.1,1.5,0.4,1.9,1.1c0.5,0.6,0.6,1.4,0.5,2.2
		c-1,4.2-2.5,8.2-4.4,12.1c-0.6,1.2-2.1,1.8-3.3,1.2c-1.9-0.7-3.9-1.1-6-1.1c-6.9,0-12.5,4-12.5,8.9c0,2.5,1.5,4.9,4.1,6.6
		c0.7,0.5,1.2,1.3,1.2,2.2c0,0.9-0.4,1.7-1.2,2.2c-4.3,2.9-9,5.2-13.9,6.7C90.6,113.8,90.3,113.9,90.1,113.9z M75,97.5
		c8.1,0,14.9,4.3,17,10.2c2.3-0.9,4.6-2,6.8-3.2c-2.3-2.4-3.5-5.4-3.5-8.5c0-7.8,8-14.2,17.7-14.2c1.9,0,3.8,0.2,5.7,0.7
		c0.9-2,1.6-4,2.2-6c-7.7-1.6-13.1-7.1-13.1-13.7c0-6.6,5.5-12.1,13.1-13.7c-0.6-2-1.3-4-2.2-5.9c-1.8,0.5-3.7,0.7-5.7,0.7
		c-9.8,0-17.7-6.4-17.7-14.2c0-3.1,1.3-6.1,3.6-8.6c-2.2-1.3-4.5-2.4-6.9-3.3c-2.1,6-9,10.2-17,10.2S60.1,24,58,18.1
		c-2.3,0.9-4.6,2-6.8,3.2c2.3,2.4,3.5,5.4,3.5,8.5c0,7.8-8,14.2-17.7,14.2c-1.9,0-3.8-0.2-5.7-0.7c-0.9,2-1.6,4-2.2,6
		c7.7,1.6,13.1,7.1,13.1,13.7c0,6.6-5.5,12.1-13.1,13.7c0.6,2.1,1.4,4.1,2.2,6c1.8-0.5,3.7-0.7,5.7-0.7c9.8,0,17.7,6.4,17.7,14.2
		c0,3.1-1.2,6.1-3.5,8.5c2.2,1.2,4.4,2.3,6.8,3.2C60.1,101.8,66.9,97.5,75,97.5z"/>
	<path class="st0" d="M75,48.3c-1.5,0-2.6-1.2-2.6-2.6v-20c0-1.5,1.2-2.6,2.6-2.6s2.6,1.2,2.6,2.6v20C77.6,47.2,76.5,48.3,75,48.3z"
		/>
	<path class="st0" d="M57.8,65.6H39.5c-1.5,0-2.6-1.2-2.6-2.6s1.2-2.6,2.6-2.6h18.2c1.5,0,2.6,1.2,2.6,2.6S59.2,65.6,57.8,65.6z"/>
	<path class="st0" d="M75,102.9c-1.5,0-2.6-1.2-2.6-2.6V80.2c0-1.5,1.2-2.6,2.6-2.6s2.6,1.2,2.6,2.6v20.1
		C77.6,101.7,76.5,102.9,75,102.9z"/>
	<path class="st0" d="M110.5,65.6H92.2c-1.5,0-2.6-1.2-2.6-2.6s1.2-2.6,2.6-2.6h18.2c1.5,0,2.6,1.2,2.6,2.6S111.9,65.6,110.5,65.6z"
		/>
	<path class="st0" d="M128.2,150H21.8c-0.9,0-1.7-0.5-2.2-1.2c-0.5-0.8-0.5-1.7-0.1-2.5L39,106c0.6-1.3,2.2-1.9,3.5-1.2
		c1.3,0.6,1.9,2.2,1.2,3.5L26,144.7H124l-17.7-36.5c-0.6-1.3-0.1-2.9,1.2-3.5c1.3-0.6,2.9-0.1,3.5,1.2l19.5,40.2
		c0.4,0.8,0.3,1.8-0.1,2.5C129.9,149.5,129.1,150,128.2,150z"/>
	<path class="st0" d="M43.2,138.7c-0.3,0-0.6-0.1-1-0.2c-1.4-0.5-2-2.1-1.5-3.4l6.6-16.9c0.5-1.4,2.1-2,3.4-1.5
		c1.4,0.5,2,2.1,1.5,3.4L45.6,137C45.2,138,44.2,138.7,43.2,138.7z"/>
	<path class="st0" d="M106.8,138.7c-1.1,0-2.1-0.6-2.5-1.7l-6.6-16.9c-0.5-1.4,0.1-2.9,1.5-3.4c1.4-0.5,2.9,0.1,3.4,1.5l6.6,16.9
		c0.5,1.4-0.1,2.9-1.5,3.4C107.5,138.6,107.2,138.7,106.8,138.7z"/>
	<path class="st0" d="M110.2,138.7H39.8c-1.5,0-2.6-1.2-2.6-2.6c0-1.5,1.2-2.6,2.6-2.6h70.4c1.5,0,2.6,1.2,2.6,2.6
		C112.8,137.5,111.7,138.7,110.2,138.7z"/>
</g>
</svg>
