<?xml version="1.0" encoding="utf-8"?>
<!-- Generator: Adobe Illustrator 28.0.0, SVG Export Plug-In . SVG Version: 6.00 Build 0)  -->
<svg version="1.1" id="_レイヤー_2" xmlns="http://www.w3.org/2000/svg" xmlns:xlink="http://www.w3.org/1999/xlink" x="0px"
	 y="0px" viewBox="0 0 150 150" style="enable-background:new 0 0 150 150;" xml:space="preserve">
<style type="text/css">
	.st0{fill:#4A4949;}
</style>
<g>
	<path class="st0" d="M40,40h25c4.1,0,7.5-3.4,7.5-7.5v-25C72.5,3.4,69.1,0,65,0H40c-4.1,0-7.5,3.4-7.5,7.5v25
		C32.5,36.6,35.9,40,40,40z M37.5,7.5C37.5,6.1,38.6,5,40,5h25c1.4,0,2.5,1.1,2.5,2.5v25c0,1.4-1.1,2.5-2.5,2.5H40
		c-1.4,0-2.5-1.1-2.5-2.5V7.5z"/>
	<path class="st0" d="M145,135h-2.5V62.5c0-6.9-5.6-12.5-12.5-12.5h-25c-1.4,0-2.5,1.1-2.5,2.5s1.1,2.5,2.5,2.5h25
		c4.1,0,7.5,3.4,7.5,7.5V135H105h-7.5V32.5C97.5,25.6,91.9,20,85,20h-5c-1.4,0-2.5,1.1-2.5,2.5S78.6,25,80,25h5
		c4.1,0,7.5,3.4,7.5,7.5V135H75v-22.5h2.5c2.8,0,5-2.2,5-5v-5c0-2.8-2.2-5-5-5H35v-15h35c1.4,0,2.5-1.1,2.5-2.5s-1.1-2.5-2.5-2.5H35
		c-2.8,0-5,2.2-5,5v15h-2.5c-2.8,0-5,2.2-5,5v5c0,2.8,2.2,5,5,5H30V135H12.5V32.5c0-4.1,3.4-7.5,7.5-7.5h5c1.4,0,2.5-1.1,2.5-2.5
		S26.4,20,25,20h-5c-6.9,0-12.5,5.6-12.5,12.5V135H5c-2.8,0-5,2.2-5,5v5c0,2.8,2.2,5,5,5h140c2.8,0,5-2.2,5-5v-5
		C150,137.2,147.8,135,145,135z M70,135H55v-22.5h15V135z M27.5,107.5v-5h50l0,5H75H30H27.5z M35,112.5h15V135H35V112.5z M5,145v-5
		h2.5H30h45h22.5h7.5h37.5h2.5l0,5H5z"/>
	<path class="st0" d="M120,80h5c2.8,0,5-2.2,5-5v-5c0-2.8-2.2-5-5-5h-5c-2.8,0-5,2.2-5,5v5C115,77.8,117.2,80,120,80z M120,70h5l0,5
		h-5V70z"/>
	<path class="st0" d="M105,77.5c1.4,0,2.5-1.1,2.5-2.5v-5c0-1.4-1.1-2.5-2.5-2.5s-2.5,1.1-2.5,2.5v5C102.5,76.4,103.6,77.5,105,77.5
		z"/>
	<path class="st0" d="M115,97.5c0,2.8,2.2,5,5,5h5c2.8,0,5-2.2,5-5v-5c0-1.4-1.1-2.5-2.5-2.5c-1.4,0-2.5,1.1-2.5,2.5v5h-5v-5
		c0-1.4-1.1-2.5-2.5-2.5s-2.5,1.1-2.5,2.5V97.5z"/>
	<path class="st0" d="M105,100c1.4,0,2.5-1.1,2.5-2.5v-5c0-1.4-1.1-2.5-2.5-2.5s-2.5,1.1-2.5,2.5v5C102.5,98.9,103.6,100,105,100z"
		/>
	<path class="st0" d="M115,120c0,2.8,2.2,5,5,5h5c2.8,0,5-2.2,5-5v-5c0-2.8-2.2-5-5-5h-5c-2.8,0-5,2.2-5,5V120z M120,115h5l0,5h-5
		V115z"/>
	<path class="st0" d="M105,122.5c1.4,0,2.5-1.1,2.5-2.5v-5c0-1.4-1.1-2.5-2.5-2.5s-2.5,1.1-2.5,2.5v5
		C102.5,121.4,103.6,122.5,105,122.5z"/>
	<path class="st0" d="M45,22.5h5v5c0,1.4,1.1,2.5,2.5,2.5s2.5-1.1,2.5-2.5v-5h5c1.4,0,2.5-1.1,2.5-2.5s-1.1-2.5-2.5-2.5h-5v-5
		c0-1.4-1.1-2.5-2.5-2.5S50,11.1,50,12.5v5h-5c-1.4,0-2.5,1.1-2.5,2.5S43.6,22.5,45,22.5z"/>
	<path class="st0" d="M17.5,52.5v10c0,2.8,2.2,5,5,5h10c2.8,0,5-2.2,5-5v-10c0-2.8-2.2-5-5-5h-10C19.7,47.5,17.5,49.7,17.5,52.5z
		 M32.5,62.5h-10v-10h10L32.5,62.5z"/>
	<path class="st0" d="M47.5,47.5c-2.8,0-5,2.2-5,5v10c0,2.8,2.2,5,5,5h10c2.8,0,5-2.2,5-5v-10c0-2.8-2.2-5-5-5H47.5z M47.5,62.5v-10
		h10l0,10H47.5z"/>
	<path class="st0" d="M82.5,52.5c1.4,0,2.5-1.1,2.5-2.5s-1.1-2.5-2.5-2.5h-10c-2.8,0-5,2.2-5,5v10c0,2.8,2.2,5,5,5h10
		c1.4,0,2.5-1.1,2.5-2.5c0-1.4-1.1-2.5-2.5-2.5h-10v-10H82.5z"/>
	<path class="st0" d="M42.5,87.5c-1.4,0-2.5,1.1-2.5,2.5s1.1,2.5,2.5,2.5h10c1.4,0,2.5-1.1,2.5-2.5s-1.1-2.5-2.5-2.5H42.5z"/>
	<circle class="st0" cx="62.5" cy="90" r="2.5"/>
</g>
</svg>
